<?xml version="1.0" encoding="UTF-8" standalone="no"?>
<svg
   width="24"
   height="24"
   viewBox="0 0 24 24"
   version="1.1">
  <defs
     id="defs10" />
  <path
     fill="none"
     d="M0 0h24v24H0V0zm24 24H0V0h24v24z"
     id="path2" />
  <path
     d="m 1,15 h 2 v 2 H 1 Z m 0,-4 h 2 v 2 H 1 Z m 0,8 h 2 v 2 C 2,21 1,20 1,19 Z M 9,3 h 2 V 5 H 9 Z M 1,7 H 3 V 9 H 1 Z M 3,3 V 5 H 1 C 1,4 2,3 3,3 Z m 18,18 h -8 v -6 h 10 v 4 c 0,1.1 -0.9,2 -2,2 z M 21,7 h 2 V 9 H 21 Z M 9,19 h 2 v 2 H 9 Z M 5,3 H 7 V 5 H 5 Z m 0,16 h 2 v 2 H 5 Z M 21,3 c 1,0 2,1 2,2 h -2 z m 0,8 h 2 v 2 H 21 Z M 13,3 h 2 v 2 h -2 z m 4,0 h 2 v 2 h -2 z"
     id="path4" />
</svg>
